<svg width="16" height="24" viewBox="0 0 16 24" fill="none" xmlns="http://www.w3.org/2000/svg">
<path fill-rule="evenodd" clip-rule="evenodd" d="M11.6 6C11.6 7.98822 9.98828 9.6 8 9.6C6.01178 9.6 4.4 7.98822 4.4 6C4.4 4.01178 6.01178 2.4 8 2.4C9.98828 2.4 11.6 4.01178 11.6 6ZM11.4439 10.9138C12.9897 9.82847 14 8.03222 14 6C14 2.6863 11.3137 0 8 0C4.6863 0 2 2.6863 2 6C2 8.03222 3.01034 9.82847 4.55612 10.9138C2.4071 11.3904 0.799999 13.3075 0.799999 15.6V21.5899V24L3.2 23.78L15.2 22.68V15.6C15.2 13.3075 13.593 11.3904 11.4439 10.9138ZM3.2 15.6C3.2 14.2745 4.27452 13.2 5.6 13.2H10.4C11.7255 13.2 12.8 14.2745 12.8 15.6V20.4899L3.2 21.37V15.6Z" fill="#FDFF00"/>
</svg>
