<svg width="110" height="60" viewBox="0 0 110 60" fill="none" xmlns="http://www.w3.org/2000/svg">
<path d="M8.10047 13.4217C-11.8585 33.1069 9.71705 49.7266 22.9997 55.5758C20.3198 51.6785 19.6832 48.0862 19.6999 46.7771C19.3399 43.0389 22.5164 41.8724 24.1496 41.7564C30.4693 40.7622 35.8823 47.4068 37.7989 50.8534C40.0388 45.5244 42.6986 44.3579 43.7486 44.4408C49.8283 44.2419 54.2147 54.7307 55.648 60C58.1278 49.024 63.3475 45.2196 65.6474 44.6893C69.6872 43.536 72.3637 48.4838 73.197 51.1019C77.2368 43.4267 83.0798 41.5742 85.4964 41.6073C94.2959 41.7664 91.2961 50.522 88.6962 54.8799C100.056 49.9089 105.762 42.5021 107.195 39.42C112.275 31.7846 109.312 22.9163 107.195 19.4366C102.675 11.3239 90.3461 4.98757 84.7464 2.83347C76.0269 -0.14913 74.9803 0.09942 75.5469 0.59652C79.1867 5.44822 80.2966 9.71002 80.3966 11.2345C81.5966 21.3753 75.5302 24.4076 72.3471 24.6562C66.7874 24.3778 65.0308 17.879 64.8475 14.6645L63.2475 0.09942L59.6477 4.52361H51.2982L47.6484 0.24855L46.6484 9.94201C46.6884 21.7929 41.1987 24.7887 38.4489 24.8053C32.4492 23.8906 30.7826 18.1276 30.6993 15.3604C30.0593 9.6338 33.6658 2.73405 35.549 0C21.7498 2.54515 11.5003 10.0083 8.10047 13.4217Z" fill="#FDFF00"/>
</svg>
